<svg xmlns="http://www.w3.org/2000/svg" xmlns:xlink="http://www.w3.org/1999/xlink" width="51" height="54" viewBox="0 0 51 54">
  <defs>
    <clipPath id="clip-path">
      <rect id="Rechteck_71" data-name="Rechteck 71" width="51" height="54" fill="none" stroke="#fdaf41" stroke-width="2"/>
    </clipPath>
  </defs>
  <g id="Gruppe_94" data-name="Gruppe 94" transform="translate(-3 1)">
    <g id="Gruppe_93" data-name="Gruppe 93" transform="translate(3 -1)" clip-path="url(#clip-path)">
      <g id="Ellipse_10" data-name="Ellipse 10" transform="translate(17.082 18.735)" fill="none" stroke="#fdaf41" stroke-linecap="round" stroke-miterlimit="10" stroke-width="2">
        <circle cx="8.265" cy="8.265" r="8.265" stroke="none"/>
        <circle cx="8.265" cy="8.265" r="7.265" fill="none"/>
      </g>
      <g id="Pfad_94" data-name="Pfad 94" transform="translate(0.051 0.051)" fill="none" stroke-linecap="round" stroke-miterlimit="10">
        <path d="M46.552,26.949a21.7,21.7,0,0,0-.936-6.312l4.058-2.873a1,1,0,0,0,.24-1.381L43.538,7.175a.974.974,0,0,0-1.367-.244L38.093,9.819a21.064,21.064,0,0,0-6.256-3.312V1.492A.987.987,0,0,0,30.856.5H19.737a.986.986,0,0,0-.981.992V6.507A21.051,21.051,0,0,0,12.5,9.819L8.421,6.932a.974.974,0,0,0-1.367.244L.677,16.383a1,1,0,0,0,.241,1.381l4.058,2.873a21.762,21.762,0,0,0,0,12.625L.919,36.134a1,1,0,0,0-.241,1.381l6.378,9.209a.975.975,0,0,0,1.367.244L12.5,44.08a21.1,21.1,0,0,0,6.256,3.312v5.014a.986.986,0,0,0,.981.992H30.856a.987.987,0,0,0,.981-.992V47.392a21.109,21.109,0,0,0,6.255-3.312l4.08,2.887a.975.975,0,0,0,1.367-.244l6.376-9.209a1,1,0,0,0-.24-1.381l-4.058-2.873A21.69,21.69,0,0,0,46.552,26.949Z" stroke="none"/>
        <path d="M 20.75641250610352 2.500003814697266 L 20.75641250610352 7.958248138427734 L 19.37701225280762 8.40850830078125 C 17.36120986938477 9.066482543945312 15.45634078979492 10.07543563842773 13.71531677246094 11.40732955932617 L 12.54608154296875 12.30181503295898 L 8.111343383789062 9.162380218505859 L 2.886329650878906 16.70600128173828 L 7.309116363525391 19.83749771118164 L 6.890270233154297 21.21737670898438 C 6.326648712158203 23.07427215576172 6.040859222412109 25.00266075134277 6.040859222412109 26.94897842407227 C 6.040859222412109 28.89632034301758 6.326610565185547 30.8246021270752 6.890186309814453 32.68025970458984 L 7.309307098388672 34.06031036376953 L 2.886280059814453 37.19198608398438 L 8.11138916015625 44.73663711547852 L 12.54561233520508 41.59756469726562 L 13.71474075317383 42.49127197265625 C 15.45625686645508 43.82253265380859 17.36159896850586 44.83173370361328 19.37784767150879 45.49082565307617 L 20.75641250610352 45.94148254394531 L 20.75641250610352 51.39795684814453 L 29.83652877807617 51.39795684814453 L 29.83652877807617 45.94169616699219 L 31.21482276916504 45.49092102050781 C 33.23069381713867 44.83162689208984 35.13576507568359 43.82239151000977 36.87709426879883 42.49127197265625 L 38.04605865478516 41.59768295288086 L 42.48141098022461 44.7366943359375 L 47.70598602294922 37.19149780273438 L 43.28363418579102 34.06031036376953 L 43.70275115966797 32.68027496337891 C 44.26633071899414 30.8245792388916 44.55208206176758 28.89628410339355 44.55208206176758 26.94897842407227 C 44.55208206176758 25.0026969909668 44.26629257202148 23.07430839538574 43.70265960693359 21.21736526489258 L 43.28383636474609 19.83749771118164 L 47.70593643188477 16.70648956298828 L 42.48153305053711 9.162433624267578 L 38.04719924926758 12.30155563354492 L 36.87805938720703 11.40767288208008 C 35.13495254516602 10.07496643066406 33.22994232177734 9.065895080566406 31.21592903137207 8.40850830078125 L 29.83652877807617 7.958248138427734 L 29.83652877807617 2.500003814697266 L 20.75641250610352 2.500003814697266 M 19.73722267150879 0.5000038146972656 L 30.85571670532227 0.5000038146972656 C 31.39681243896484 0.5000038146972656 31.83652877807617 0.9441184997558594 31.83652877807617 1.491836547851562 L 31.83652877807617 6.507225036621094 C 34.11885833740234 7.252201080322266 36.2204475402832 8.387306213378906 38.09281158447266 9.81884765625 L 42.17147064208984 6.931507110595703 C 42.6144905090332 6.617424011230469 43.22722244262695 6.725425720214844 43.53799819946289 7.175060272216797 L 49.91441345214844 16.38261413574219 C 50.22517776489258 16.83114242553711 50.1171760559082 17.44939041137695 49.67416381835938 17.76347351074219 L 45.61644744873047 20.6364860534668 C 46.22256469726562 22.63339042663574 46.55208206176758 24.75150871276855 46.55208206176758 26.94897842407227 C 46.55208206176758 29.14644813537598 46.22256469726562 31.26567268371582 45.61644744873047 33.26145935058594 L 49.67416381835938 36.13448333740234 C 50.1171760559082 36.44856643676758 50.22517776489258 37.06681442260742 49.91441345214844 37.51534271240234 L 43.53799819946289 46.72399139404297 C 43.22722625732422 47.17253112792969 42.61449432373047 47.2816276550293 42.17147064208984 46.96754455566406 L 38.09171676635742 44.0802001953125 C 36.2204475402832 45.51065063476562 34.11775207519531 46.64575576782227 31.83652877807617 47.39183807373047 L 31.83652877807617 52.40612030029297 C 31.83652877807617 52.95383834838867 31.39681243896484 53.39795303344727 30.85571670532227 53.39795303344727 L 19.73722267150879 53.39795303344727 C 19.19502258300781 53.39795303344727 18.75641250610352 52.95383834838867 18.75641250610352 52.40612030029297 L 18.75641250610352 47.39183807373047 C 16.47408294677734 46.64575576782227 14.37138748168945 45.51065063476562 12.50011825561523 44.0802001953125 L 8.421470642089844 46.96754455566406 C 7.977363586425781 47.2816276550293 7.36572265625 47.17253112792969 7.054939270019531 46.72399139404297 L 0.6774215698242188 37.51534271240234 C 0.3666458129882812 37.06681442260742 0.4746589660644531 36.44856643676758 0.9187774658203125 36.13448333740234 L 4.976493835449219 33.26145935058594 C 4.370365142822266 31.26567268371582 4.040859222412109 29.14644813537598 4.040859222412109 26.94897842407227 C 4.040859222412109 24.75150871276855 4.370365142822266 22.63339042663574 4.976493835449219 20.6364860534668 L 0.9187774658203125 17.76347351074219 C 0.4746589660644531 17.44939041137695 0.3666458129882812 16.83114242553711 0.6774215698242188 16.38261413574219 L 7.054939270019531 7.175060272216797 C 7.365715026855469 6.725429534912109 7.977348327636719 6.617427825927734 8.421470642089844 6.931507110595703 L 12.50011825561523 9.81884765625 C 14.37138748168945 8.387306213378906 16.47408294677734 7.252201080322266 18.75641250610352 6.507225036621094 L 18.75641250610352 1.491836547851562 C 18.75641250610352 0.9441184997558594 19.19502258300781 0.5000038146972656 19.73722267150879 0.5000038146972656 Z" stroke="none" fill="#fdaf41"/>
      </g>
    </g>
  </g>
</svg>
