<svg id="Gruppe_88" data-name="Gruppe 88" xmlns="http://www.w3.org/2000/svg" xmlns:xlink="http://www.w3.org/1999/xlink" width="66.429" height="44.06" viewBox="0 0 66.429 44.06">
  <defs>
    <clipPath id="clip-path">
      <rect id="Rechteck_45" data-name="Rechteck 45" width="66.429" height="44.06" fill="none" stroke="#fdaf41" stroke-width="2"/>
    </clipPath>
  </defs>
  <g id="Gruppe_50" data-name="Gruppe 50" clip-path="url(#clip-path)">
    <path id="Pfad_60" data-name="Pfad 60" d="M25.807,25.79A12.654,12.654,0,1,1,13.154,13.076,12.684,12.684,0,0,1,25.807,25.79Z" transform="translate(0.178 4.651)" fill="none" stroke="#fdaf41" stroke-linecap="round" stroke-linejoin="round" stroke-width="2"/>
    <path id="Pfad_61" data-name="Pfad 61" d="M19.139,25.281a7.231,7.231,0,1,1,14.461,0" transform="translate(6.808 6.408)" fill="none" stroke="#fdaf41" stroke-linecap="round" stroke-linejoin="round" stroke-width="2"/>
    <path id="Pfad_62" data-name="Pfad 62" d="M2.056,22.921C8.451,12.159,14.023,4.564,16.818,2.412A7.56,7.56,0,0,1,20.358.823a5.816,5.816,0,0,1,4.775,1.12A6.3,6.3,0,0,1,26.91,6.8l-1.468,22.93" transform="translate(0.731 0.255)" fill="none" stroke="#fdaf41" stroke-linecap="round" stroke-linejoin="round" stroke-width="2"/>
    <path id="Pfad_63" data-name="Pfad 63" d="M55.14,25.958A12.654,12.654,0,1,1,42.487,13.244,12.684,12.684,0,0,1,55.14,25.958Z" transform="translate(10.611 4.711)" fill="none" stroke="#fdaf41" stroke-linecap="round" stroke-linejoin="round" stroke-width="2"/>
    <path id="Pfad_64" data-name="Pfad 64" d="M30.271,27.994,28.5,7.787a8.325,8.325,0,0,1,3.065-6.068,6.431,6.431,0,0,1,4.166-1.2,6.824,6.824,0,0,1,3.841,1.817C42.331,4.7,47.592,12.5,53.544,23.453" transform="translate(10.137 0.178)" fill="none" stroke="#fdaf41" stroke-linecap="round" stroke-linejoin="round" stroke-width="2"/>
    <path id="Pfad_65" data-name="Pfad 65" d="M20.832,5.415a7.206,7.206,0,0,1,9.869.233" transform="translate(7.41 1.271)" fill="none" stroke="#fdaf41" stroke-linecap="round" stroke-linejoin="round" stroke-width="2"/>
  </g>
</svg>
