<svg id="Gruppe_96" data-name="Gruppe 96" xmlns="http://www.w3.org/2000/svg" xmlns:xlink="http://www.w3.org/1999/xlink" width="39" height="61" viewBox="0 0 39 61">
  <defs>
    <clipPath id="clip-path">
      <rect id="Rechteck_72" data-name="Rechteck 72" width="39" height="61" fill="none" stroke="#fdaf41" stroke-width="2"/>
    </clipPath>
  </defs>
  <g id="Gruppe_95" data-name="Gruppe 95" clip-path="url(#clip-path)">
    <path id="Pfad_95" data-name="Pfad 95" d="M27.161,38.172l3.776-8.841h-.061a13.846,13.846,0,1,0-24.644,0l3.557,8.841" transform="translate(1.153 2.234)" fill="none" stroke="#fdaf41" stroke-linecap="round" stroke-linejoin="round" stroke-width="2"/>
    <path id="Pfad_96" data-name="Pfad 96" d="M23.115,48.186H11.173a.342.342,0,0,1-.334-.275L8.789,32.458H26.322L23.448,47.911A.34.34,0,0,1,23.115,48.186Z" transform="translate(2.152 7.949)" fill="none" stroke="#fdaf41" stroke-linecap="round" stroke-linejoin="round" stroke-width="2"/>
    <path id="Pfad_97" data-name="Pfad 97" d="M22.646,45.092l-2.5,3.528a1.7,1.7,0,0,1-1.379.715H14.586a1.69,1.69,0,0,1-1.378-.716l-2.5-3.527" transform="translate(2.621 11.043)" fill="none" stroke="#fdaf41" stroke-linejoin="round" stroke-width="2"/>
    <line id="Linie_14" data-name="Linie 14" x2="10.376" transform="translate(11.752 45.558)" fill="none" stroke="#fdaf41" stroke-linecap="round" stroke-miterlimit="10" stroke-width="2"/>
    <line id="Linie_15" data-name="Linie 15" x2="6.6" transform="translate(12.696 50.708)" fill="none" stroke="#fdaf41" stroke-linecap="round" stroke-miterlimit="10" stroke-width="2"/>
    <line id="Linie_16" data-name="Linie 16" y1="5.052" transform="translate(19.707 0.623)" fill="none" stroke="#fdaf41" stroke-linecap="round" stroke-linejoin="round" stroke-width="2"/>
    <line id="Linie_17" data-name="Linie 17" x1="3.56" y1="3.573" transform="translate(0.622 9.571)" fill="none" stroke="#fdaf41" stroke-linecap="round" stroke-linejoin="round" stroke-width="2"/>
    <line id="Linie_18" data-name="Linie 18" y1="3.573" x2="3.56" transform="translate(34.409 9.571)" fill="none" stroke="#fdaf41" stroke-linecap="round" stroke-linejoin="round" stroke-width="2"/>
  </g>
</svg>
