<svg id="Gruppe_85" data-name="Gruppe 85" xmlns="http://www.w3.org/2000/svg" xmlns:xlink="http://www.w3.org/1999/xlink" width="47" height="53" viewBox="0 0 47 53">
  <defs>
    <clipPath id="clip-path">
      <rect id="Rechteck_66" data-name="Rechteck 66" width="47" height="53" fill="none"/>
    </clipPath>
  </defs>
  <g id="Gruppe_84" data-name="Gruppe 84" clip-path="url(#clip-path)">
    <path id="Pfad_92" data-name="Pfad 92" d="M.5,35.819c0-3.729,2.516-6.753,5.62-6.753s5.62,3.023,5.62,6.753v9.847c0,3.729-2.517,6.753-5.62,6.753S.5,49.4.5,45.666V25.521C.5,11.7,10.67.5,23.214.5S45.929,11.7,45.929,25.521l-.117,20.144c0,3.729-2.517,6.753-5.62,6.753s-5.62-3.023-5.62-6.753V35.819c0-3.729,2.516-6.753,5.62-6.753s5.62,3.023,5.62,6.753" transform="translate(0.041 0.041)" fill="none" stroke="#000" stroke-linecap="round" stroke-linejoin="round" stroke-width="1"/>
  </g>
</svg>
