<svg xmlns="http://www.w3.org/2000/svg" xmlns:xlink="http://www.w3.org/1999/xlink" width="48.133" height="53" viewBox="0 0 48.133 53">
  <defs>
    <clipPath id="clip-path">
      <rect id="Rechteck_63" data-name="Rechteck 63" width="48.133" height="53" fill="none"/>
    </clipPath>
  </defs>
  <g id="Gruppe_69" data-name="Gruppe 69" transform="translate(0 -4)">
    <g id="Gruppe_68" data-name="Gruppe 68" transform="translate(0 4)" clip-path="url(#clip-path)">
      <path id="Pfad_81" data-name="Pfad 81" d="M3.553,52.418a1.573,1.573,0,0,1-1.567-1.5L.5,21.06A.319.319,0,0,1,.618,20.8L23.83.569a.312.312,0,0,1,.392,0L47.433,20.8a.315.315,0,0,1,.117.262L46.064,50.921a1.571,1.571,0,0,1-1.566,1.5Z" transform="translate(0.041 0.041)" fill="none" stroke="#000" stroke-linecap="round" stroke-linejoin="round" stroke-width="1"/>
      <path id="Pfad_82" data-name="Pfad 82" d="M29,49.57V36.532a1.2,1.2,0,0,0-1.255-1.145H17.7a1.2,1.2,0,0,0-1.256,1.145V49.57" transform="translate(1.343 2.889)" fill="none" stroke="#000" stroke-linejoin="round" stroke-width="1"/>
    </g>
  </g>
</svg>
