<svg xmlns="http://www.w3.org/2000/svg" xmlns:xlink="http://www.w3.org/1999/xlink" width="188" height="38.702" viewBox="0 0 188 38.702">
  <defs>
    <clipPath id="clip-path">
      <rect id="Rechteck_7" data-name="Rechteck 7" width="188" height="38.702" fill="none"/>
    </clipPath>
  </defs>
  <g id="Gruppe_6" data-name="Gruppe 6" transform="translate(0 0)">
    <path id="Pfad_21" data-name="Pfad 21" d="M16.962,16.858,6.132,27.689H5.908V16.858H0V44.427H5.908V33.6h.224l10.831,10.83h8.349L11.527,30.642,25.311,16.858Z" transform="translate(0 -5.726)" fill="#2e2e2d"/>
    <path id="Pfad_22" data-name="Pfad 22" d="M60.348,25.632l4.57,7.917H55.781ZM43.277,43.394h6.812l2.284-3.937H68.324l2.264,3.937h6.833L60.348,13.817Z" transform="translate(-14.698 -4.693)" fill="#2e2e2d"/>
    <g id="Gruppe_5" data-name="Gruppe 5" transform="translate(0 0)">
      <g id="Gruppe_4" data-name="Gruppe 4" clip-path="url(#clip-path)">
        <path id="Pfad_23" data-name="Pfad 23" d="M127.516,26.7v7.877q0,9.846-9.846,9.846H99.947V16.859h17.722q9.846,0,9.846,9.846m-5.908,7.877V26.7q0-3.938-3.938-3.938H105.855V38.52h11.815q3.938,0,3.938-3.938" transform="translate(-33.945 -5.726)" fill="#2e2e2d"/>
        <path id="Pfad_24" data-name="Pfad 24" d="M146.658,34.581V26.7q0-9.846,9.846-9.846h7.877q9.845,0,9.846,9.846v7.877q0,9.845-9.846,9.846H156.5q-9.847,0-9.846-9.846m5.908-7.877v7.877q0,3.938,3.938,3.938h7.877q3.937,0,3.938-3.938V26.7q0-3.938-3.938-3.938H156.5q-3.939,0-3.938,3.938" transform="translate(-49.809 -5.726)" fill="#2e2e2d"/>
        <path id="Pfad_25" data-name="Pfad 25" d="M212.939,16.859q7.876,0,7.877,7.877v.985q0,7.877-7.877,7.877h-.985l10.831,10.829h-8.349L203.6,33.6h-4.45V44.427h-5.908V16.859Zm1.969,7.877a1.741,1.741,0,0,0-1.969-1.969H199.155v4.922h13.784a1.74,1.74,0,0,0,1.969-1.969Z" transform="translate(-65.632 -5.726)" fill="#2e2e2d"/>
        <path id="Pfad_26" data-name="Pfad 26" d="M270.508,16.859v5.908H248.847v4.922h19.692V33.6H248.847v10.83H242.94V16.859Z" transform="translate(-82.509 -5.726)" fill="#2e2e2d"/>
        <path id="Pfad_27" data-name="Pfad 27" d="M152.681,18.14c1.86.777,11.742,14.612,11.742,14.612L186.164,0,164.705,23.152Z" transform="translate(-51.854 0)" fill="#fca01f"/>
      </g>
    </g>
  </g>
</svg>
