<svg xmlns="http://www.w3.org/2000/svg" xmlns:xlink="http://www.w3.org/1999/xlink" width="516.215" height="38.702" viewBox="0 0 516.215 38.702">
  <defs>
    <clipPath id="clip-path">
      <rect id="Rechteck_6" data-name="Rechteck 6" width="308.215" height="11.609" fill="#fff"/>
    </clipPath>
    <clipPath id="clip-path-2">
      <rect id="Rechteck_65" data-name="Rechteck 65" width="187.999" height="38.702" fill="none"/>
    </clipPath>
  </defs>
  <g id="Gruppe_80" data-name="Gruppe 80" transform="translate(-313 -4864.649)">
    <g id="Gruppe_78" data-name="Gruppe 78" transform="translate(521 4882.196)">
      <path id="Pfad_1" data-name="Pfad 1" d="M0,.169V1.4H3.42V11.409H4.887V1.4H8.323V.169Z" transform="translate(0 0.014)" fill="#fff"/>
      <path id="Pfad_2" data-name="Pfad 2" d="M19.62.17V4.889H14.183V.17H12.715V11.411h1.468V6.141H19.62v5.27h1.452V.17Z" transform="translate(1.051 0.014)" fill="#fff"/>
      <path id="Pfad_3" data-name="Pfad 3" d="M26.646.17V11.411h6.338v-1.2H28.113V6.141h4.354v-1.2H28.113V1.369h4.622V.17Z" transform="translate(2.202 0.014)" fill="#fff"/>
      <g id="Gruppe_2" data-name="Gruppe 2" transform="translate(0 0)">
        <g id="Gruppe_1" data-name="Gruppe 1" clip-path="url(#clip-path)">
          <path id="Pfad_4" data-name="Pfad 4" d="M45.716.17h1.55L48.6,5.858c.335,1.416.617,2.816.835,3.886h.032c.183-1.1.534-2.452.917-3.9l1.5-5.67H53.4l1.368,5.7c.316,1.35.617,2.685.783,3.852h.034c.234-1.235.551-2.486.9-3.887L57.959.17h1.5L56.275,11.412H54.739l-1.4-5.855c-.35-1.436-.584-2.534-.749-3.671h-.035a35.5,35.5,0,0,1-.85,3.687l-1.585,5.839H48.568Z" transform="translate(3.778 0.014)" fill="#fff"/>
          <path id="Pfad_5" data-name="Pfad 5" d="M63.577.17h1.468V4.889h5.437V.17h1.452V11.412H70.482V6.142H65.045v5.27H63.577Z" transform="translate(5.254 0.014)" fill="#fff"/>
          <path id="Pfad_6" data-name="Pfad 6" d="M76.908,5.872C76.908,2.419,79.06,0,82.162,0c3.2,0,5.021,2.536,5.021,5.789,0,3.735-2.385,5.819-5.222,5.819-3.053,0-5.054-2.385-5.054-5.736m8.74-.051c0-2.3-1.118-4.637-3.587-4.637-2.334,0-3.619,2.119-3.619,4.637,0,2.552,1.319,4.6,3.6,4.6,2.369,0,3.6-2.151,3.6-4.6" transform="translate(6.356 0)" fill="#fff"/>
          <path id="Pfad_7" data-name="Pfad 7" d="M92.011.17h1.467V10.194h4.8v1.218H92.011Z" transform="translate(7.604 0.014)" fill="#fff"/>
          <path id="Pfad_8" data-name="Pfad 8" d="M103.168.17h6.089v1.2h-4.621V4.939h4.352v1.2h-4.352v4.067h4.871v1.2h-6.339Z" transform="translate(8.526 0.014)" fill="#fff"/>
          <path id="Pfad_9" data-name="Pfad 9" d="M114.479,9.656a4.978,4.978,0,0,0,2.6.733c1.484,0,2.352-.783,2.352-1.917,0-1.05-.6-1.651-2.119-2.235-1.834-.634-2.986-1.6-2.986-3.186,0-1.734,1.468-3.035,3.653-3.035a5.275,5.275,0,0,1,2.47.533l-.384,1.185a4.445,4.445,0,0,0-2.135-.536c-1.534,0-2.118.918-2.118,1.686,0,1.051.682,1.569,2.235,2.169,1.9.75,2.852,1.651,2.852,3.3,0,1.733-1.267,3.252-3.919,3.252a5.891,5.891,0,0,1-2.885-.734Z" transform="translate(9.43 0.002)" fill="#fff"/>
          <path id="Pfad_10" data-name="Pfad 10" d="M129.151.17h1.75l3.837,11.24h-1.55l-1.2-3.535H128l-1.151,3.535H125.33Zm2.534,6.572-1.1-3.236c-.25-.734-.417-1.4-.584-2.053h-.05c-.151.668-.333,1.351-.551,2.034l-1.1,3.254Z" transform="translate(10.358 0.014)" fill="#fff"/>
          <path id="Pfad_11" data-name="Pfad 11" d="M139.416.17h1.468V10.194h4.8v1.218h-6.272Z" transform="translate(11.522 0.014)" fill="#fff"/>
          <path id="Pfad_12" data-name="Pfad 12" d="M150.574.17h6.088v1.2h-4.62V4.939H156.4v1.2h-4.353v4.067h4.87v1.2h-6.338Z" transform="translate(12.444 0.014)" fill="#fff"/>
          <path id="Pfad_13" data-name="Pfad 13" d="M175.853.016a6.059,6.059,0,0,1,2.67.483l-.35,1.183a5.32,5.32,0,0,0-2.27-.468c-2.635,0-4.387,1.686-4.387,4.638,0,2.753,1.585,4.52,4.321,4.52a5.816,5.816,0,0,0,2.368-.466l.3,1.167a7.523,7.523,0,0,1-2.986.534c-3.152,0-5.538-2.018-5.538-5.706A5.58,5.58,0,0,1,175.853.016" transform="translate(14.048 0.002)" fill="#fff"/>
          <path id="Pfad_14" data-name="Pfad 14" d="M182.483,5.872c0-3.454,2.15-5.872,5.252-5.872,3.2,0,5.02,2.536,5.02,5.789,0,3.735-2.385,5.819-5.219,5.819-3.054,0-5.053-2.385-5.053-5.736m8.738-.051c0-2.3-1.117-4.637-3.586-4.637-2.336,0-3.619,2.119-3.619,4.637,0,2.552,1.318,4.6,3.6,4.6,2.369,0,3.6-2.151,3.6-4.6" transform="translate(15.081 0)" fill="#fff"/>
          <path id="Pfad_15" data-name="Pfad 15" d="M198.106.17h1.852l1.916,5.453c.468,1.366.835,2.686,1.119,3.852h.065a35,35,0,0,1,1.185-3.868l2-5.437H208.1l.7,11.242h-1.434l-.251-4.94c-.1-1.548-.2-3.449-.183-4.835h-.05c-.384,1.3-.9,2.819-1.436,4.32l-1.951,5.387h-1.151L200.558,5.99q-.827-2.377-1.3-4.353h-.034c-.05,1.386-.116,3.252-.217,4.954l-.3,4.821h-1.385Z" transform="translate(16.308 0.014)" fill="#fff"/>
          <path id="Pfad_16" data-name="Pfad 16" d="M214.381.17h1.85l1.92,5.453c.466,1.366.833,2.686,1.117,3.852h.066a34.543,34.543,0,0,1,1.185-3.868l2-5.437h1.852l.7,11.242h-1.433l-.251-4.94c-.1-1.548-.2-3.449-.184-4.835h-.049c-.384,1.3-.9,2.819-1.436,4.32l-1.951,5.387h-1.152L216.833,5.99q-.827-2.377-1.3-4.353H215.5c-.049,1.386-.116,3.252-.215,4.954l-.3,4.821H213.6Z" transform="translate(17.653 0.014)" fill="#fff"/>
          <path id="Pfad_17" data-name="Pfad 17" d="M230.133.17H231.6V6.841c0,2.5,1.1,3.568,2.618,3.568,1.652,0,2.737-1.1,2.737-3.568V.17h1.451V6.742c0,3.453-1.8,4.853-4.237,4.853-2.3,0-4.036-1.3-4.036-4.789Z" transform="translate(19.019 0.014)" fill="#fff"/>
          <path id="Pfad_18" data-name="Pfad 18" d="M243.987.17h1.6l3.6,5.688a36.145,36.145,0,0,1,2.017,3.668l.034-.034c-.133-1.5-.167-2.868-.167-4.6V.17h1.368V11.412h-1.468l-3.569-5.706a32.873,32.873,0,0,1-2.1-3.752l-.051.016c.083,1.418.117,2.768.117,4.637v4.8h-1.385Z" transform="translate(20.164 0.014)" fill="#fff"/>
          <rect id="Rechteck_5" data-name="Rechteck 5" width="1.469" height="11.242" transform="translate(279.337 0.184)" fill="#fff"/>
          <path id="Pfad_19" data-name="Pfad 19" d="M267.827,1.4h-3.419V.169h8.322V1.4H269.3V11.41h-1.469Z" transform="translate(21.852 0.014)" fill="#fff"/>
          <path id="Pfad_20" data-name="Pfad 20" d="M280.135,6.658,276.582.169h1.668l1.569,3.1c.432.851.767,1.535,1.116,2.32h.035c.3-.736.7-1.469,1.134-2.32l1.619-3.1h1.634L281.6,6.625v4.787h-1.468Z" transform="translate(22.858 0.014)" fill="#fff"/>
        </g>
      </g>
    </g>
    <g id="Gruppe_81" data-name="Gruppe 81" transform="translate(313 4864.648)">
      <path id="Pfad_84" data-name="Pfad 84" d="M16.962,16.858,6.132,27.689H5.908V16.858H0V44.427H5.908V33.6h.224l10.831,10.83h8.349L11.527,30.642,25.311,16.858Z" transform="translate(0 -5.726)" fill="#fff"/>
      <path id="Pfad_85" data-name="Pfad 85" d="M60.348,25.632l4.57,7.917H55.78ZM43.277,43.394h6.812l2.284-3.937H68.324l2.264,3.937h6.833L60.348,13.817Z" transform="translate(-14.698 -4.693)" fill="#fff"/>
      <g id="Gruppe_82" data-name="Gruppe 82" transform="translate(0 0)">
        <g id="Gruppe_81-2" data-name="Gruppe 81" clip-path="url(#clip-path-2)">
          <path id="Pfad_86" data-name="Pfad 86" d="M127.515,26.7v7.877q0,9.846-9.846,9.845H99.947V16.859h17.722q9.846,0,9.846,9.845m-5.908,7.877V26.7q0-3.938-3.938-3.938H105.855V38.52h11.815q3.938,0,3.938-3.938" transform="translate(-33.945 -5.726)" fill="#fff"/>
          <path id="Pfad_87" data-name="Pfad 87" d="M146.658,34.581V26.7q0-9.846,9.846-9.845h7.877q9.845,0,9.845,9.845v7.877q0,9.845-9.845,9.845H156.5q-9.847,0-9.846-9.845m5.908-7.877v7.877q0,3.938,3.938,3.938h7.877q3.937,0,3.938-3.938V26.7q0-3.938-3.938-3.938H156.5q-3.939,0-3.938,3.938" transform="translate(-49.81 -5.726)" fill="#fff"/>
          <path id="Pfad_88" data-name="Pfad 88" d="M212.939,16.859q7.876,0,7.877,7.877v.985q0,7.877-7.877,7.877h-.985l10.831,10.829h-8.349L203.6,33.6h-4.45V44.427h-5.908V16.859Zm1.969,7.877a1.741,1.741,0,0,0-1.969-1.969H199.155v4.922h13.784a1.74,1.74,0,0,0,1.969-1.969Z" transform="translate(-65.633 -5.726)" fill="#fff"/>
          <path id="Pfad_89" data-name="Pfad 89" d="M270.508,16.859v5.908H248.847v4.922h19.692V33.6H248.847v10.83H242.94V16.859Z" transform="translate(-82.51 -5.726)" fill="#fff"/>
          <path id="Pfad_90" data-name="Pfad 90" d="M152.681,18.14c1.86.777,11.742,14.612,11.742,14.612L186.164,0,164.705,23.152Z" transform="translate(-51.855 0)" fill="#fca01f"/>
        </g>
      </g>
    </g>
  </g>
</svg>
